<svg width="1200" height="800" viewBox="0 0 1200 800" xmlns="http://www.w3.org/2000/svg">
  <defs>
    <linearGradient id="backgroundGradient" x1="0%" y1="0%" x2="100%" y2="100%">
      <stop offset="0%" style="stop-color:#F0FDF4;stop-opacity:1" />
      <stop offset="50%" style="stop-color:#ECFDF5;stop-opacity:1" />
      <stop offset="100%" style="stop-color:#D1FAE5;stop-opacity:1" />
    </linearGradient>
    <linearGradient id="kitchenGradient" x1="0%" y1="0%" x2="0%" y2="100%">
      <stop offset="0%" style="stop-color:#F9FAFB;stop-opacity:1" />
      <stop offset="100%" style="stop-color:#F3F4F6;stop-opacity:1" />
    </linearGradient>
    <radialGradient id="plateGradient" cx="50%" cy="30%" r="70%">
      <stop offset="0%" style="stop-color:#FFFFFF;stop-opacity:1" />
      <stop offset="100%" style="stop-color:#F9FAFB;stop-opacity:1" />
    </radialGradient>
    <filter id="softShadow">
      <feDropShadow dx="0" dy="4" stdDeviation="8" flood-opacity="0.1"/>
    </filter>
  </defs>
  
  <!-- Background -->
  <rect width="1200" height="800" fill="url(#backgroundGradient)"/>
  
  <!-- Kitchen Counter Background -->
  <rect x="0" y="500" width="1200" height="300" fill="url(#kitchenGradient)"/>
  
  <!-- Floating Ingredient Elements (will move with parallax) -->
  <g id="ingredients" opacity="0.8">
    <!-- Tomato -->
    <circle cx="150" cy="200" r="25" fill="#EF4444" filter="url(#softShadow)"/>
    <path d="M125,190 Q150,180 175,190" fill="#22C55E" stroke="#16A34A" stroke-width="2"/>
    
    <!-- Avocado -->
    <ellipse cx="300" cy="150" rx="20" ry="30" fill="#65A30D" filter="url(#softShadow)"/>
    <ellipse cx="300" cy="150" rx="12" ry="18" fill="#84CC16"/>
    <circle cx="300" cy="145" r="6" fill="#FEF3C7"/>
    
    <!-- Carrot -->
    <polygon points="500,100 520,100 525,200 515,210 505,210 495,200" fill="#F97316" filter="url(#softShadow)"/>
    <path d="M500,90 Q512,85 525,90 Q520,100 500,100" fill="#22C55E"/>
    
    <!-- Bell Pepper -->
    <ellipse cx="750" cy="180" rx="25" ry="35" fill="#EAB308" filter="url(#softShadow)"/>
    <rect x="745" y="145" width="10" height="15" rx="5" fill="#22C55E"/>
    
    <!-- Mushroom -->
    <ellipse cx="950" cy="220" rx="20" ry="12" fill="#92400E" filter="url(#softShadow)"/>
    <rect x="945" y="225" width="10" height="20" fill="#F3F4F6"/>
    
    <!-- Herbs scattered -->
    <ellipse cx="200" cy="300" rx="3" ry="8" fill="#22C55E" transform="rotate(15)" opacity="0.7"/>
    <ellipse cx="220" cy="310" rx="3" ry="8" fill="#22C55E" transform="rotate(-10)" opacity="0.7"/>
    <ellipse cx="180" cy="320" rx="3" ry="8" fill="#22C55E" transform="rotate(25)" opacity="0.7"/>
    
    <ellipse cx="600" cy="250" rx="3" ry="8" fill="#22C55E" transform="rotate(-20)" opacity="0.7"/>
    <ellipse cx="620" cy="260" rx="3" ry="8" fill="#22C55E" transform="rotate(30)" opacity="0.7"/>
    <ellipse cx="590" cy="270" rx="3" ry="8" fill="#22C55E" transform="rotate(5)" opacity="0.7"/>
  </g>
  
  <!-- Central Plate with Meal -->
  <g id="centralMeal" transform="translate(500, 400)">
    <!-- Plate -->
    <circle cx="100" cy="100" r="80" fill="url(#plateGradient)" stroke="#E5E7EB" stroke-width="2" filter="url(#softShadow)"/>
    
    <!-- Meal components -->
    <!-- Rice/grain base -->
    <ellipse cx="100" cy="110" rx="50" ry="15" fill="#FEF3C7" opacity="0.8"/>
    
    <!-- Protein -->
    <ellipse cx="80" cy="90" rx="20" ry="12" fill="#92400E"/>
    <ellipse cx="120" cy="95" rx="18" ry="10" fill="#92400E"/>
    
    <!-- Vegetables -->
    <circle cx="90" cy="110" r="5" fill="#EF4444"/>
    <circle cx="110" cy="105" r="4" fill="#22C55E"/>
    <circle cx="105" cy="115" r="3" fill="#F97316"/>
    <ellipse cx="85" cy="105" rx="4" ry="2" fill="#65A30D"/>
    
    <!-- Garnish -->
    <path d="M70,80 Q100,75 130,80" stroke="#22C55E" stroke-width="2" fill="none" opacity="0.7"/>
  </g>
  
  <!-- AI Assistant Interface -->
  <g id="aiInterface" transform="translate(50, 50)">
    <!-- Chat bubble -->
    <rect x="0" y="0" width="250" height="120" rx="15" fill="#FFFFFF" stroke="#E5E7EB" stroke-width="1" filter="url(#softShadow)"/>
    <polygon points="30,120 50,140 50,120" fill="#FFFFFF"/>
    
    <!-- AI Avatar -->
    <circle cx="25" cy="25" r="15" fill="#8B5CF6"/>
    <circle cx="20" cy="20" r="2" fill="#FFFFFF"/>
    <circle cx="30" cy="20" r="2" fill="#FFFFFF"/>
    <path d="M18,28 Q25,32 32,28" stroke="#FFFFFF" stroke-width="2" fill="none"/>
    
    <!-- Chat content -->
    <text x="50" y="20" fill="#374151" font-family="Arial, sans-serif" font-size="10" font-weight="bold">AI Meal Planner</text>
    <text x="50" y="35" fill="#6B7280" font-family="Arial, sans-serif" font-size="8">I suggest a Mediterranean bowl</text>
    <text x="50" y="48" fill="#6B7280" font-family="Arial, sans-serif" font-size="8">with your current ingredients:</text>
    
    <!-- Ingredients suggestions -->
    <circle cx="60" cy="65" r="8" fill="#EF4444" opacity="0.7"/>
    <text x="75" y="69" fill="#6B7280" font-family="Arial, sans-serif" font-size="7">Tomatoes</text>
    
    <ellipse cx="60" cy="85" rx="6" ry="8" fill="#65A30D" opacity="0.7"/>
    <text x="75" y="89" fill="#6B7280" font-family="Arial, sans-serif" font-size="7">Avocado</text>
    
    <rect x="55" y="95" width="8" height="12" fill="#F97316" opacity="0.7"/>
    <text x="75" y="105" fill="#6B7280" font-family="Arial, sans-serif" font-size="7">Carrots</text>
    
    <!-- Confidence indicator -->
    <rect x="150" y="90" width="80" height="8" rx="4" fill="#F3F4F6"/>
    <rect x="150" y="90" width="65" height="8" rx="4" fill="#22C55E"/>
    <text x="150" y="108" fill="#059669" font-family="Arial, sans-serif" font-size="7">95% Match</text>
  </g>
  
  <!-- Recipe Cards Floating -->
  <g id="recipeCards" opacity="0.9">
    <!-- Card 1 -->
    <g transform="translate(800, 100)">
      <rect x="0" y="0" width="180" height="120" rx="10" fill="#FFFFFF" stroke="#E5E7EB" stroke-width="1" filter="url(#softShadow)"/>
      <rect x="10" y="10" width="160" height="60" rx="5" fill="#F3F4F6"/>
      <text x="90" y="30" text-anchor="middle" fill="#374151" font-family="Arial, sans-serif" font-size="8">Recipe Image</text>
      <text x="10" y="85" fill="#374151" font-family="Arial, sans-serif" font-size="10" font-weight="bold">Mediterranean Bowl</text>
      <text x="10" y="98" fill="#6B7280" font-family="Arial, sans-serif" font-size="7">25 min • 4 ingredients</text>
      <text x="10" y="110" fill="#059669" font-family="Arial, sans-serif" font-size="7">⭐ 4.8 • Uses your items</text>
    </g>
    
    <!-- Card 2 -->
    <g transform="translate(850, 280)">
      <rect x="0" y="0" width="180" height="120" rx="10" fill="#FFFFFF" stroke="#E5E7EB" stroke-width="1" filter="url(#softShadow)"/>
      <rect x="10" y="10" width="160" height="60" rx="5" fill="#F3F4F6"/>
      <text x="90" y="30" text-anchor="middle" fill="#374151" font-family="Arial, sans-serif" font-size="8">Recipe Image</text>
      <text x="10" y="85" fill="#374151" font-family="Arial, sans-serif" font-size="10" font-weight="bold">Roasted Veggie Mix</text>
      <text x="10" y="98" fill="#6B7280" font-family="Arial, sans-serif" font-size="7">35 min • 6 ingredients</text>
      <text x="10" y="110" fill="#F59E0B" font-family="Arial, sans-serif" font-size="7">⭐ 4.6 • Save before expire</text>
    </g>
  </g>
  
  <!-- Nutrition Info Panel -->
  <g id="nutritionPanel" transform="translate(80, 600)">
    <rect x="0" y="0" width="200" height="140" rx="12" fill="#FFFFFF" stroke="#E5E7EB" stroke-width="1" filter="url(#softShadow)"/>
    <text x="100" y="20" text-anchor="middle" fill="#374151" font-family="Arial, sans-serif" font-size="12" font-weight="bold">Nutrition Insights</text>
    
    <!-- Protein bar -->
    <text x="15" y="40" fill="#6B7280" font-family="Arial, sans-serif" font-size="8">Protein</text>
    <rect x="15" y="45" width="170" height="6" rx="3" fill="#F3F4F6"/>
    <rect x="15" y="45" width="120" height="6" rx="3" fill="#22C55E"/>
    <text x="140" y="53" fill="#059669" font-family="Arial, sans-serif" font-size="7">28g</text>
    
    <!-- Carbs bar -->
    <text x="15" y="65" fill="#6B7280" font-family="Arial, sans-serif" font-size="8">Carbs</text>
    <rect x="15" y="70" width="170" height="6" rx="3" fill="#F3F4F6"/>
    <rect x="15" y="70" width="85" height="6" rx="3" fill="#3B82F6"/>
    <text x="105" y="78" fill="#2563EB" font-family="Arial, sans-serif" font-size="7">45g</text>
    
    <!-- Fiber bar -->
    <text x="15" y="90" fill="#6B7280" font-family="Arial, sans-serif" font-size="8">Fiber</text>
    <rect x="15" y="95" width="170" height="6" rx="3" fill="#F3F4F6"/>
    <rect x="15" y="95" width="110" height="6" rx="3" fill="#8B5CF6"/>
    <text x="130" y="103" fill="#7C3AED" font-family="Arial, sans-serif" font-size="7">12g</text>
    
    <!-- Calories -->
    <text x="100" y="125" text-anchor="middle" fill="#374151" font-family="Arial, sans-serif" font-size="14" font-weight="bold">485 calories</text>
  </g>
  
  <!-- Smart Shopping List -->
  <g id="shoppingList" transform="translate(950, 500)">
    <rect x="0" y="0" width="200" height="180" rx="12" fill="#FFFFFF" stroke="#E5E7EB" stroke-width="1" filter="url(#softShadow)"/>
    <text x="100" y="20" text-anchor="middle" fill="#374151" font-family="Arial, sans-serif" font-size="12" font-weight="bold">Smart Shopping</text>
    
    <!-- Items -->
    <circle cx="20" cy="40" r="4" fill="#EF4444"/>
    <text x="35" y="45" fill="#374151" font-family="Arial, sans-serif" font-size="9">Cherry Tomatoes</text>
    <text x="160" y="45" fill="#6B7280" font-family="Arial, sans-serif" font-size="7">$3.99</text>
    
    <ellipse cx="20" cy="60" rx="3" ry="5" fill="#65A30D"/>
    <text x="35" y="65" fill="#374151" font-family="Arial, sans-serif" font-size="9">Spinach</text>
    <text x="160" y="65" fill="#6B7280" font-family="Arial, sans-serif" font-size="7">$2.49</text>
    
    <rect x="17" y="75" width="6" height="8" fill="#FEF3C7"/>
    <text x="35" y="85" fill="#374151" font-family="Arial, sans-serif" font-size="9">Quinoa</text>
    <text x="160" y="85" fill="#6B7280" font-family="Arial, sans-serif" font-size="7">$4.99</text>
    
    <circle cx="20" cy="105" r="4" fill="#F97316"/>
    <text x="35" y="110" fill="#374151" font-family="Arial, sans-serif" font-size="9">Sweet Potato</text>
    <text x="160" y="110" fill="#6B7280" font-family="Arial, sans-serif" font-size="7">$1.99</text>
    
    <!-- Total -->
    <line x1="20" y1="125" x2="180" y2="125" stroke="#E5E7EB" stroke-width="1"/>
    <text x="35" y="140" fill="#374151" font-family="Arial, sans-serif" font-size="10" font-weight="bold">Total</text>
    <text x="160" y="140" fill="#059669" font-family="Arial, sans-serif" font-size="10" font-weight="bold">$13.46</text>
    
    <!-- AI suggestion -->
    <text x="20" y="155" fill="#8B5CF6" font-family="Arial, sans-serif" font-size="8">💡 Save 15% at FreshMart</text>
    <text x="20" y="168" fill="#6B7280" font-family="Arial, sans-serif" font-size="7">Based on your location & preferences</text>
  </g>
  
  <!-- Floating particles for depth -->
  <g id="particles" opacity="0.3">
    <circle cx="100" cy="100" r="2" fill="#22C55E"/>
    <circle cx="300" cy="300" r="1.5" fill="#3B82F6"/>
    <circle cx="700" cy="150" r="1" fill="#8B5CF6"/>
    <circle cx="900" cy="400" r="2.5" fill="#F59E0B"/>
    <circle cx="200" cy="500" r="1" fill="#EF4444"/>
    <circle cx="1000" cy="200" r="1.5" fill="#22C55E"/>
    <circle cx="400" cy="600" r="2" fill="#3B82F6"/>
    <circle cx="800" cy="600" r="1" fill="#8B5CF6"/>
  </g>
</svg>